<?xml version="1.0" standalone="no"?>
<!DOCTYPE svg PUBLIC "-//W3C//DTD SVG 20010904//EN"
 "http://www.w3.org/TR/2001/REC-SVG-20010904/DTD/svg10.dtd">
<svg version="1.0" xmlns="http://www.w3.org/2000/svg"
 width="320.000000pt" height="320.000000pt" viewBox="0 0 320.000000 320.000000"
 preserveAspectRatio="xMidYMid meet">
<metadata>
Created by potrace 1.14, written by Peter Selinger 2001-2017
</metadata>
<g transform="translate(0.000000,320.000000) scale(0.100000,-0.100000)"
fill="#000000" stroke="none">
<path d="M2830 2874 c-129 -27 -468 -75 -625 -89 -88 -8 -178 -18 -199 -24
-22 -5 -253 -10 -535 -12 l-496 -2 -245 42 c-135 23 -277 52 -316 63 -39 12
-79 18 -89 14 -25 -9 -16 -60 35 -213 34 -102 42 -143 51 -255 5 -73 17 -167
26 -208 11 -50 16 -115 15 -195 -1 -73 4 -147 13 -190 17 -80 19 -196 6 -276
-5 -30 -12 -126 -15 -214 -4 -88 -10 -201 -15 -251 -5 -51 -7 -128 -4 -172 7
-94 -26 -262 -83 -425 -49 -142 -51 -137 49 -137 49 0 139 11 218 26 111 22
178 28 389 34 140 5 273 13 295 18 62 16 572 23 840 12 448 -19 520 -26 633
-59 113 -34 177 -40 186 -16 3 8 -1 29 -8 47 -8 18 -17 59 -21 90 l-7 57 40
10 40 11 -18 83 c-10 45 -21 99 -25 120 l-6 39 -49 -7 c-47 -6 -48 -6 -54 22
-16 78 -36 232 -46 353 -6 74 -14 162 -19 194 -10 75 4 771 19 891 6 50 22
132 36 183 13 50 33 141 44 200 11 60 31 138 44 174 14 36 22 68 19 72 -9 9
-50 6 -123 -10z m-1524 -233 c46 -21 84 -64 84 -95 0 -44 -65 -176 -86 -176
-7 0 -14 -7 -18 -15 -4 -11 2 -15 27 -15 82 0 158 -46 173 -104 9 -39 -3 -90
-31 -120 -21 -23 -31 -26 -92 -26 -79 0 -98 9 -88 39 7 24 25 28 25 6 0 -10
10 -15 33 -15 52 0 60 11 55 71 -9 106 -43 138 -133 125 l-47 -8 7 -71 c4 -40
9 -98 10 -129 4 -65 3 -65 -69 -47 l-42 10 -22 137 c-12 75 -29 196 -38 267
-8 72 -19 140 -24 153 -8 19 -7 22 13 22 12 0 27 -4 32 -8 12 -8 91 -168 98
-197 3 -11 5 5 6 35 3 107 31 180 70 180 9 0 34 -9 57 -19z m679 -18 c19 -30
24 -32 78 -33 31 0 57 -4 57 -10 0 -5 -19 -10 -43 -10 -24 0 -46 -3 -50 -6 -3
-4 0 -23 8 -43 8 -20 17 -85 20 -146 8 -148 9 -155 20 -155 5 0 4 -5 -3 -12
-8 -8 -8 -17 -1 -30 6 -11 9 -32 7 -47 -1 -16 2 -35 7 -42 6 -8 10 -25 10 -39
0 -23 -4 -25 -47 -28 -56 -4 -65 7 -97 108 -20 62 -28 161 -30 363 l-1 68 -32
-6 c-18 -4 -44 -2 -58 4 -24 9 -24 10 10 11 69 1 80 8 80 52 0 35 2 39 22 36
13 -2 32 -17 43 -35z m-175 -3 c0 -5 -5 -32 -11 -59 -6 -28 -12 -99 -13 -158
-2 -60 -7 -159 -11 -221 -10 -134 -17 -147 -83 -139 -68 7 -116 61 -147 165
-16 52 -41 363 -31 388 5 12 14 15 38 10 42 -8 58 -23 58 -56 0 -15 6 -33 14
-39 13 -11 27 -66 32 -126 1 -16 11 -48 22 -70 11 -22 26 -73 33 -113 7 -39
14 -71 15 -69 8 8 24 151 33 295 6 89 15 171 21 182 11 21 30 27 30 10z m-487
-667 c3 -5 1 -18 -4 -30 -6 -16 -17 -23 -35 -23 -20 0 -25 4 -20 16 3 9 6 22
6 30 0 15 45 20 53 7z m-273 -12 c0 -11 -17 -17 -76 -26 l-41 -6 -7 -135 c-4
-75 -10 -142 -13 -150 -7 -19 43 -19 79 0 16 9 30 11 33 5 11 -17 -6 -28 -55
-35 -28 -4 -51 -12 -52 -18 0 -6 -2 -15 -2 -21 -1 -5 -5 -16 -9 -22 -5 -8 -3
-13 3 -13 7 0 10 -7 6 -15 -5 -14 7 -61 26 -102 6 -11 8 -26 4 -31 -3 -6 -1
-12 5 -14 16 -5 -22 -46 -46 -49 -40 -3 -44 2 -63 64 -35 111 -37 376 -6 544
l6 33 104 0 c58 0 104 -4 104 -9z m1334 -22 c-3 -5 -13 -9 -23 -9 -10 0 -32
-5 -50 -11 -24 -9 -30 -15 -25 -28 29 -68 34 -104 39 -268 2 -98 9 -202 15
-232 5 -29 10 -67 10 -84 0 -29 -1 -30 -41 -24 -23 3 -46 10 -51 15 -5 5 -16
47 -24 93 -16 87 -21 394 -9 463 l7 35 -37 -10 c-43 -12 -79 -4 -55 11 20 13
159 58 190 62 33 5 61 -2 54 -13z m-727 -10 c47 -15 66 -50 60 -114 -6 -70
-48 -140 -103 -173 l-42 -25 42 -35 c22 -19 61 -44 86 -55 39 -18 45 -18 54
-4 9 14 12 14 33 -1 35 -22 13 -32 -72 -32 -56 0 -78 5 -114 25 -24 14 -46 23
-49 21 -2 -3 -4 -31 -3 -63 0 -32 -2 -79 -5 -105 -6 -45 -7 -47 -46 -53 -33
-6 -44 -3 -61 13 -19 19 -21 36 -25 186 -4 161 9 362 28 412 10 24 11 24 97
19 49 -3 102 -10 120 -16z m347 1 c4 -5 -14 -37 -40 -72 -27 -35 -48 -66 -47
-69 1 -4 -2 -21 -7 -38 -10 -36 5 -100 25 -107 8 -3 33 8 57 24 46 31 158 92
171 92 4 0 7 -6 7 -12 0 -7 -27 -28 -59 -45 -62 -34 -121 -79 -121 -93 0 -4
17 -19 38 -32 24 -16 48 -46 66 -83 l29 -57 -39 -37 c-21 -20 -52 -42 -67 -49
-16 -7 -31 -21 -34 -32 -7 -26 -57 -35 -130 -24 -67 10 -70 17 -53 99 7 36 28
80 56 123 l45 66 -45 41 c-45 40 -66 77 -66 117 0 24 51 128 86 173 23 30 28
32 72 28 26 -3 51 -9 56 -13z m-704 -110 c12 -7 15 -33 16 -117 2 -149 13
-299 24 -329 18 -47 13 -60 -31 -73 -38 -12 -43 -11 -65 10 -71 67 -70 277 3
477 16 43 26 49 53 32z m-302 -590 c47 -21 63 -50 65 -120 2 -34 -2 -45 -13
-45 -11 0 -18 18 -25 61 -5 34 -16 69 -24 78 -36 43 -112 -3 -120 -72 -11
-103 -3 -259 18 -339 11 -45 21 -92 21 -106 0 -16 8 -28 27 -36 35 -16 43 -6
73 89 27 86 38 78 20 -15 -12 -65 -27 -87 -67 -99 -56 -17 -156 42 -193 114
-65 128 -42 346 48 455 48 59 96 69 170 35z m672 10 c0 -11 -19 -17 -74 -25
-41 -6 -46 -10 -42 -30 2 -12 0 -58 -4 -101 -5 -43 -11 -100 -14 -126 l-5 -48
39 0 c21 0 42 5 45 10 9 15 25 12 25 -4 0 -16 -21 -26 -58 -26 -15 0 -32 -4
-39 -8 -20 -12 -30 -54 -25 -102 2 -25 5 -58 6 -75 0 -16 4 -33 9 -36 11 -8
-24 -36 -55 -44 -25 -6 -28 -4 -39 37 -25 84 -12 333 27 554 l6 32 99 0 c54 0
99 -4 99 -8z m406 -11 c4 -8 28 -10 68 -6 58 5 59 5 31 -8 -16 -8 -40 -14 -51
-15 -31 0 -41 -17 -48 -85 -4 -33 -11 -76 -16 -95 -5 -19 -11 -62 -15 -95 -3
-33 -8 -75 -10 -92 -4 -31 -2 -33 26 -33 17 0 39 5 50 10 15 8 19 7 19 -3 0
-14 -25 -27 -78 -42 -21 -6 -23 -11 -17 -43 4 -21 8 -38 10 -40 1 -2 21 5 44
14 61 24 61 11 0 -15 -66 -29 -125 -22 -140 16 -13 35 -11 105 6 208 44 253
67 335 95 335 10 0 22 -5 26 -11z m-725 -36 c9 -8 22 -40 28 -71 10 -52 8 -69
-14 -163 -41 -163 -86 -277 -120 -301 -22 -16 -74 -8 -95 14 -30 32 -35 60
-34 178 2 134 28 231 87 314 36 52 106 66 148 29z m1025 16 c6 -10 76 -5 110
8 8 3 14 1 14 -5 0 -5 -26 -16 -57 -23 -56 -14 -58 -15 -65 -54 -11 -60 -48
-317 -48 -333 0 -11 12 -13 55 -10 90 8 84 -15 -9 -37 -36 -8 -50 -16 -47 -26
2 -8 6 -26 9 -41 5 -33 7 -34 72 -8 57 23 60 23 60 12 0 -4 -31 -18 -68 -31
-57 -20 -76 -22 -118 -15 -47 9 -50 11 -63 54 -13 42 -12 56 22 227 46 227 69
293 102 293 13 0 27 -5 31 -11z m-487 -45 c65 -8 66 -24 2 -24 l-49 0 -7 -47
c-3 -27 -12 -73 -20 -103 -7 -30 -16 -68 -19 -84 l-7 -29 45 5 c26 3 46 2 46
-2 0 -12 -27 -20 -65 -20 -41 0 -48 -14 -50 -107 -3 -79 -14 -103 -51 -103
-31 0 -39 31 -30 128 6 73 69 349 88 386 7 13 17 17 38 13 15 -3 50 -9 79 -13z
m1048 -399 c-1 -5 -6 -13 -12 -17 -6 -4 -2 -8 8 -8 11 0 18 -7 16 -17 -1 -10
-1 -21 0 -25 0 -5 1 -11 0 -14 0 -4 5 -10 11 -14 15 -9 4 -30 -16 -30 -17 0
-19 36 -1 43 7 3 5 6 -5 6 -11 1 -16 8 -13 21 2 11 -1 20 -7 20 -5 0 -8 6 -5
14 3 7 1 18 -4 23 -5 5 -1 9 10 9 11 0 19 -5 18 -11z m43 -143 c0 -4 -11 -9
-26 -10 -14 -1 -23 2 -19 8 7 12 45 14 45 2z"/>
<path d="M1233 2613 c-14 -21 -19 -53 -22 -145 -4 -137 8 -152 49 -66 26 55
34 151 17 211 -9 34 -22 34 -44 0z"/>
<path d="M1526 1903 c-10 -10 -7 -45 8 -88 7 -22 13 -70 12 -107 -1 -72 12
-77 39 -12 19 46 40 183 29 193 -12 11 -80 21 -88 14z"/>
<path d="M1894 1487 c-32 -48 -41 -68 -48 -114 -7 -48 2 -58 37 -42 34 15 67
122 52 168 -9 29 -16 26 -41 -12z"/>
<path d="M1286 1161 c-43 -47 -80 -265 -71 -410 4 -53 10 -100 15 -105 13 -13
57 82 92 201 26 89 32 125 32 206 0 84 -3 99 -20 112 -25 19 -28 19 -48 -4z"/>
<path d="M2940 640 c0 -5 5 -10 11 -10 5 0 7 5 4 10 -3 6 -8 10 -11 10 -2 0
-4 -4 -4 -10z"/>
</g>
</svg>
